<?xml version="1.0" standalone="no"?>
<!DOCTYPE svg PUBLIC "-//W3C//DTD SVG 20010904//EN"
 "http://www.w3.org/TR/2001/REC-SVG-20010904/DTD/svg10.dtd">
<svg version="1.0" xmlns="http://www.w3.org/2000/svg"
 width="500.000000pt" height="500.000000pt" viewBox="0 0 500.000000 500.000000"
 preserveAspectRatio="xMidYMid meet">
<metadata>
Created by potrace 1.16, written by Peter Selinger 2001-2019
</metadata>
<g transform="translate(0.000000,500.000000) scale(0.100000,-0.100000)"
fill="#000000" stroke="none">
<path d="M1530 3185 c-421 -420 -767 -771 -768 -780 -2 -9 31 -52 81 -102 64
-66 90 -86 111 -86 22 1 153 127 777 749 413 412 756 760 763 774 7 14 11 32
8 40 -2 8 -39 50 -80 93 -56 56 -83 77 -102 77 -20 0 -182 -157 -790 -765z"/>
<path d="M3494 3614 c-23 -10 -1688 -1800 -1691 -1818 -1 -11 191 -196 204
-196 8 0 75 71 547 580 116 124 267 286 336 360 70 74 223 239 340 365 118
127 272 292 342 367 92 99 128 144 128 162 0 18 -23 46 -87 105 -85 79 -95 85
-119 75z"/>
<path d="M3163 1838 c-555 -555 -672 -677 -667 -694 8 -30 168 -187 186 -182
17 3 1378 1347 1378 1360 0 4 -7 8 -16 8 -9 0 -58 41 -109 90 -51 50 -95 90
-97 90 -2 0 -306 -303 -675 -672z"/>
<path d="M1494 1473 c-192 -207 -203 -220 -197 -242 7 -29 166 -171 190 -171
25 0 28 2 183 168 l134 143 -105 105 -105 105 -100 -108z"/>
</g>
</svg>
